<svg width="224" height="224" viewBox="0 0 224 224" fill="none" xmlns="http://www.w3.org/2000/svg">
<rect x="1.06066" y="111.584" width="156.303" height="156.303" rx="3.25" transform="rotate(-45 1.06066 111.584)" stroke="white" stroke-width="1.5"/>
<path d="M104.647 146.361V142.4H92.0078V164.094L132.188 147.682V159H124.076V162.962H135.583V142.4L95.592 158.246V146.361H104.647Z" stroke="white" stroke-width="1.5"/>
<path d="M75.5469 70.5802H102.867C105.873 77.8657 117.923 82.6889 125.817 70.5802H152.044" stroke="white" stroke-width="1.5"/>
<path d="M113.795 84.4398V140.993" stroke="white" stroke-width="1.5"/>
<circle cx="114.069" cy="61.5881" r="2.51454" fill="white"/>
<path d="M59.2846 111.124L75.5061 80.0553L95.8518 118.822M95.8518 118.822L51.1738 119.647C53.5566 124.687 61.3741 134.879 73.5815 135.318C85.7889 135.758 93.5148 124.229 95.8518 118.822Z" stroke="white" stroke-width="1.5"/>
<path d="M135.421 111.124L151.643 80.0553L171.988 118.822M171.988 118.822L127.311 119.647C129.693 124.687 137.511 134.879 149.718 135.318C161.926 135.758 169.651 124.229 171.988 118.822Z" stroke="white" stroke-width="1.5"/>
</svg>
