<svg width="71" height="72" viewBox="0 0 71 72" fill="none" xmlns="http://www.w3.org/2000/svg">
<rect x="1.20519" y="36.1884" width="48.5" height="48.5" rx="3.25" transform="rotate(-45 1.20519 36.1884)" stroke="#FA842B" stroke-width="1.5"/>
<path d="M33.3035 47.2078V45.9526H29.2988V52.8262L42.0299 47.6262V51.2124H39.4598V52.4676H43.1058V45.9526L30.4345 50.9734V47.2078H33.3035Z" fill="#FA842B"/>
<path d="M24.082 23.1964H32.7386C33.6908 25.5048 37.509 27.0331 40.0101 23.1964H48.3203" stroke="#FA842B" stroke-width="1.5"/>
<path d="M36.2012 27.5879V45.5069" stroke="#FA842B" stroke-width="1.5"/>
<circle cx="36.2889" cy="20.3473" r="0.796735" fill="#FA842B"/>
<path d="M18.9293 36.0426L24.0691 26.1986L30.5156 38.4819M30.5156 38.4819L16.3594 38.7432C17.1144 40.3403 19.5914 43.5694 23.4593 43.7088C27.3272 43.8482 29.7751 40.1951 30.5156 38.4819Z" stroke="#FA842B" stroke-width="1.5"/>
<path d="M43.0543 36.0426L48.1941 26.1986L54.6406 38.4819M54.6406 38.4819L40.4844 38.7432C41.2394 40.3403 43.7164 43.5694 47.5843 43.7088C51.4522 43.8482 53.9001 40.1951 54.6406 38.4819Z" stroke="#FA842B" stroke-width="1.5"/>
</svg>
