<svg width="193" height="194" viewBox="0 0 193 194" fill="none" xmlns="http://www.w3.org/2000/svg">
<g id="logo">
<rect id="Rectangle 36" x="1.6007" y="96.9273" width="134.581" height="134.581" rx="3.25" transform="rotate(-45 1.6007 96.9273)" stroke="#8B8B8B" stroke-width="1.5"/>
<g id="logo_2">
<path id="Vector 107" d="M90.7848 126.918V123.502H79.8857V142.21L114.535 128.057V137.817H107.54V141.234H117.463V123.502L82.9765 137.167V126.918H90.7848Z" stroke="#8B8B8B" stroke-width="1.5"/>
<path id="Vector 107_2" d="M65.6909 61.569H89.2507C91.8422 67.8516 102.234 72.0109 109.041 61.569H131.658" stroke="#8B8B8B" stroke-width="1.5"/>
<path id="Vector 108" d="M98.6743 73.5205V122.289" stroke="#8B8B8B" stroke-width="1.5"/>
<circle id="Ellipse 1" cx="98.9101" cy="53.8144" r="2.1684" fill="#8B8B8B"/>
<path id="Vector 109" d="M51.6657 96.5308L65.6542 69.7392L83.1992 103.169M83.1992 103.169L44.6714 103.881C46.7262 108.227 53.4676 117.016 63.9945 117.395C74.5215 117.774 81.1839 107.832 83.1992 103.169Z" stroke="#8B8B8B" stroke-width="1.5"/>
<path id="Vector 110" d="M117.322 96.5308L131.311 69.7392L148.856 103.169M148.856 103.169L110.328 103.881C112.383 108.227 119.124 117.016 129.651 117.395C140.178 117.774 146.841 107.832 148.856 103.169Z" stroke="#8B8B8B" stroke-width="1.5"/>
</g>
</g>
</svg>
